<svg width="52" height="51" viewBox="0 0 52 51" fill="none" xmlns="http://www.w3.org/2000/svg">
<ellipse cx="26" cy="25.7727" rx="25" ry="24.7727" stroke="#B9B3B3" stroke-width="0.750234"/>
<path d="M30.9653 27.4559C30.8246 27.4034 30.6689 27.3902 30.5187 27.419C30.3686 27.4478 30.235 27.5164 30.1331 27.6115L29.3201 28.3703L29.1509 28.5282L28.921 28.5014C26.2453 28.1893 24.6944 26.7632 23.8255 25.4143C23.3946 24.7452 23.1321 24.0976 22.9769 23.6171C22.8991 23.3762 22.8477 23.1757 22.8155 23.0332C22.7993 22.9619 22.7879 22.9049 22.7804 22.8645C22.7766 22.8443 22.7738 22.8282 22.7718 22.8165L22.7695 22.8023L22.7687 22.7978L22.7685 22.7961L22.7683 22.7949M30.9653 27.4559C30.9654 27.4559 30.9652 27.4559 30.9653 27.4559ZM30.9653 27.4559L32.5392 28.0439C32.6827 28.0975 32.8003 28.188 32.8803 28.2983C32.96 28.4082 33 28.5338 33 28.6589V31.3303V31.3316C33.0002 31.4172 32.9818 31.5029 32.9447 31.5838C32.9075 31.6649 32.8518 31.7406 32.779 31.8051C32.7062 31.8696 32.6181 31.9213 32.5192 31.9553C32.4209 31.9891 32.3152 32.0042 32.2091 31.999C26.8439 31.6868 23.6651 29.4217 21.7647 26.8615C19.8485 24.2801 19.2057 21.3606 19.0043 19.7355C18.9936 19.6476 19.0028 19.5582 19.0319 19.4727C19.0612 19.3869 19.1104 19.3052 19.1787 19.234C19.247 19.1627 19.3328 19.1035 19.4317 19.0624C19.5306 19.0213 19.639 18.9997 19.7495 19L19.7508 19H22.5623C22.7197 19 22.8709 19.0442 22.9961 19.1233C23.121 19.2022 23.2122 19.3106 23.2635 19.4303M23.2635 19.4303C23.2635 19.4304 23.2635 19.4303 23.2635 19.4303ZM23.2635 19.4303L23.8929 20.8993C23.943 21.0161 23.9546 21.142 23.928 21.2629C23.9013 21.3842 23.8361 21.5005 23.7345 21.5952L22.9214 22.3541L22.7286 22.5341L22.7683 22.7949M22.7683 22.7949L23.2626 22.7196C22.7683 22.7949 22.7683 22.7947 22.7683 22.7949Z" stroke="black"/>
</svg>
