<svg xmlns="http://www.w3.org/2000/svg" viewBox="0 0 428.19 436.14"><defs><style>.cls-1,.cls-2{fill:#1a3a1f;}.cls-2{font-size:65.74px;font-family:MonlyLite-Bold, Monly Lite;font-weight:700;}</style></defs><g id="Слой_2" data-name="Слой 2"><g id="Слой_1-2" data-name="Слой 1"><path class="cls-1" d="M149.66,242.14C55.48,166.65,132.22,57.53,208.66.59a3,3,0,0,1,3.48-.06c76.59,53.36,152.94,161,74.33,237.27a3,3,0,0,1-4.67-3.65c43.05-75.05-.6-158.48-69.17-205.68a3,3,0,0,0-3.52.1c-40,31-80.75,71.76-83.52,125.23-3.28,48.37,43.53,96.24,92.23,86.94a4.11,4.11,0,0,0,.68-.21c73.7-31.7,47.8-110.59-7-147.58a3,3,0,0,0-3.49.12c-25.49,19.66-49.81,41.38-59,73.29a3,3,0,0,1-5.85-.72C141.1,126,176.27,90.05,208,67.24a2.92,2.92,0,0,1,3.33-.09c156.51,109.08,22.78,269-113.22,169-40.82-30-58-84-25.38-193.8,1-3.22,6-1.49,5.38,1.8-22.18,112.85-7,170,71.55,198"/><path class="cls-1" d="M350.88,42.3c52,92.84,22,199.84-72,244.84,88-15,122-68,143.47-171.58.72-3.49,6-3,5.87.6C421.85,265.14,340.9,315,227.05,313.1h-.29C107,325,0,277.23,0,116.18a2.93,2.93,0,0,1,5.84-.4C46.55,419.21,439.88,304.24,345.62,45,344.42,41.67,349.17,39.24,350.88,42.3Z"/><path class="cls-1" d="M17.59,353.46c56.52-16.32,204.52-59.32,394.84-1,1.71.52.64,2.92-1.12,2.67-163.2-22.94-229.2-22.94-392.77.56C17.09,355.85,16.18,353.87,17.59,353.46Z"/><text class="cls-2" transform="translate(52.11 420.31) scale(2.33 1)">LAKSH.RU</text></g></g></svg>