<?xml version="1.0" encoding="utf-8"?>
<!-- Generator: Adobe Illustrator 26.3.1, SVG Export Plug-In . SVG Version: 6.00 Build 0)  -->
<svg version="1.1" id="Слой_1" xmlns="http://www.w3.org/2000/svg" xmlns:xlink="http://www.w3.org/1999/xlink" x="0px" y="0px"
	 viewBox="0 0 600 600" style="enable-background:new 0 0 600 600;" xml:space="preserve">
<style type="text/css">
	.st0{fill:#1A3A1F;}
</style>
<g>
	<g>
		<path class="st0" d="M229.1,326c-104.9-84.1-19.4-205.6,65.7-269c1.1-0.9,2.7-0.9,3.9-0.1C384,116.3,469,236.2,381.5,321.2
			c-2.8,2.7-7.1-0.7-5.2-4.1c47.9-83.6-0.7-176.5-77-229.1c-1.2-0.8-2.8-0.8-3.9,0.1c-44.5,34.5-89.9,79.9-93,139.5
			c-3.7,53.9,48.5,107.2,102.7,96.8c0.3,0,0.5-0.1,0.8-0.2C387.8,288.9,359,201,298,159.8c-1.2-0.8-2.8-0.7-3.9,0.1
			c-28.4,21.9-55.5,46.1-65.7,81.6c-1,3.6-6.3,2.9-6.5-0.8c-2.3-44.1,36.8-84.2,72.2-109.6c1.1-0.8,2.6-0.9,3.7-0.1
			c174.3,121.5,25.4,299.6-126.1,188.2c-45.5-33.4-64.6-93.6-28.3-215.9c1.1-3.6,6.7-1.7,6,2C124.7,231.2,141.6,294.8,229.1,326"/>
		<path class="st0" d="M453.2,103.4C511.1,206.8,477.7,326,373,376.1c98-16.7,135.9-75.7,159.8-191.1c0.8-3.9,6.7-3.3,6.5,0.7
			c-7.1,165.9-97.2,221.5-224,219.4c-0.1,0-0.2,0-0.3,0c-133.4,13.2-252.5-40-252.6-219.3c0-4.1,6-4.5,6.5-0.4
			c45.3,338,483.4,209.9,378.4-78.9C446,102.7,451.3,100,453.2,103.4z"/>
	</g>
	<path class="st0" d="M82,450c63-18.2,227.8-66.1,439.8-1.2c1.9,0.6,0.7,3.3-1.3,3c-181.8-25.6-255.3-25.6-437.5,0.6
		C81.4,452.6,80.4,450.4,82,450z"/>
	<g>
		<path class="st0" d="M130.9,518.4c4.6-1.7,7.5-6.1,8.7-13.2c0.5-2.7,0.8-6,0.8-9.8c0-1.5,0-3.1-0.1-5l-0.1-2.4l-0.1-2.3
			c-0.1-2.8-0.2-5.1-0.2-6.9c0-2.9,0.8-5.4,2.5-7.5c1.3-1.6,3-2.9,5.1-3.9c3.4-1.6,7.3-2.4,11.6-2.3l1,0l1,0h1l1,0
			c0.8,0,1.5,0.1,2.2,0.1c1.7,0.1,3.2,0.4,4.4,0.7c3.3,0.9,5,2.7,5.1,5.2c0.1,4.2,0.5,13.5,1.2,28c0.2,5.3,0.5,10.2,0.7,14.6
			c0.2,4.2,0.3,6.4,0.3,6.5l-7.7,0.1c0-0.1-0.1-2.3-0.3-6.5c-0.2-4.4-0.4-9.3-0.6-14.6c-0.7-14.4-1.1-23.8-1.3-28
			c-0.1-1-0.4-1.7-1.1-1.9c-0.6-0.2-2.4-0.3-5.2-0.4l-2.2,0c-0.3,0-0.6,0-1,0c-0.4,0-0.9,0.1-1.3,0.2c-1.3,0.2-2.5,0.6-3.5,1.1
			c-1.5,0.7-2.7,1.7-3.5,2.9c-1.2,1.6-1.8,3.5-1.7,5.8c0,1.3,0,3.6,0.1,6.8c0.1,2.4,0.2,4.2,0.2,5.5c0,2.1,0,3.9,0,5.5
			c-0.1,4.1-0.4,7.6-1,10.5c-1.7,7.4-5.5,12.2-11.6,14.4L130.9,518.4z"/>
		<path class="st0" d="M220.9,520.7c0.1-4.1-0.1-8.9-0.8-14.4c-4.4-0.1-11.3-0.1-20.8,0.1c-1.5,7.5-2.2,12.1-2.2,13.8h-7.6
			c0-1.2,0.5-4.6,1.6-10.2c1.1-6.3,2.4-12.3,3.8-18c1.8-7.6,3.6-13.4,5.3-17.6c1.4-3.5,2.8-6,4.1-7.3c1.3-1.4,3.1-2,5.2-2
			c0.6,0,1.3,0.1,1.9,0.2c0.8,0.2,1.5,0.4,2.2,0.7c4.1,2.1,7.8,9.9,11.1,23.4c2.9,12.2,4.3,22.7,4,31.4L220.9,520.7z M200.1,502.5
			c9-0.1,15.4-0.2,19.4-0.1c-2.4-15.8-5.7-26.5-9.8-32.1c-1.5,2.5-3.2,7-5.1,13.5C203.1,489.3,201.6,495.5,200.1,502.5z"/>
		<path class="st0" d="M262.8,522.3L241.6,495c0,14.2-0.4,22.7-1.2,25.4l-7.6-0.5c0.7-2.6,1.1-11.4,1.1-26.5c0-15-0.4-24.2-1.1-27.4
			l7.6-0.5c0.5,2.3,0.9,8.7,1.1,19.3l1.4-1.4l1.5-1.4c1.2-1.1,2.2-2.1,3.1-3c2.5-2.3,4.6-4.2,6.3-5.9c4.7-4.4,7.8-7.2,9.2-8.4
			l6.6,1.9c-1.4,1.3-5,4.6-10.7,9.9c-1.9,1.8-4.3,4-7.2,6.7l-1.7,1.6l-0.8,0.8l-0.8,0.7c-1.3,1.2-2.3,2.1-3,2.8l24.5,31.6
			L262.8,522.3z"/>
		<path class="st0" d="M347,464.7c0,0,0,0.6,0,1.6v0.4v0.4c0,0.4,0.1,0.7,0.1,1c0,0.8,0,1.6,0.1,2.4c0,2.1,0.1,4.1,0.1,6
			c0.1,2.5,0.2,5,0.2,7.3c0.3,13.7,0.4,23.5,0.4,29.4c0,2.6-1.4,4.6-4.1,5.9c-2.4,1.2-5.9,1.7-10.4,1.7c-0.9,0-2.1,0-3.5-0.1h-0.4
			l-1.6,0c-1,0-1.9,0-2.8-0.1c-1.1-0.1-2.2-0.2-3.2-0.3c-2.6-0.4-4.8-1-6.5-1.9l-0.1,0.2l-0.2,0.2c-0.1,0.2-0.3,0.2-0.4,0.3
			c-2.5,1.2-6.3,1.8-11.3,1.8l-1.9,0c-0.5,0-1.1,0-1.7,0h-0.4l-1.8,0h-1.1l-1.2,0c-0.9,0-1.8-0.1-2.6-0.1c-2.1-0.2-3.9-0.5-5.4-1
			c-4-1.3-6-3.8-6-7.5c0-1.9,0-5.5,0.1-10.8c0.1-4.2,0.2-9.5,0.2-15.8c0-2.4,0.1-5,0.1-7.7c0-2,0-4.1,0.1-6.6c0-4.2,0.1-6.3,0.1-6.4
			l7.7,0c0,0.1,0,2.2-0.1,6.4c-0.1,2.4-0.1,4.6-0.1,6.6c-0.1,2.8-0.1,5.3-0.1,7.7c-0.1,6.3-0.2,11.6-0.2,15.8
			c-0.1,5.3-0.1,8.9-0.1,10.8c0,2.1,0.7,3.5,2.2,4.1c1,0.4,3.2,0.6,6.6,0.7l2,0h0.4l1.2,0h1.3c0.9,0,1.8,0,2.5,0
			c1.9-0.1,3.3-0.3,4.1-0.7c1.1-0.5,1.7-1.5,1.7-2.9c0-6-0.1-15.8-0.4-29.4c-0.1-4.6-0.2-9-0.3-13.3c-0.1-1.7-0.1-3-0.1-4.1
			c-0.1-1-0.1-1.6-0.1-1.6l7.7,0c0,0,0,0.5,0,1.5v0.4v0.4c0,0.4,0.1,0.7,0.1,0.9c0,0.8,0,1.6,0,2.3c0,2,0.1,3.9,0.1,5.7
			c0,2.4,0.1,4.7,0.1,7c0.1,5.8,0.2,11,0.3,15.5c0.1,5.7,0.2,10.2,0.2,13.5c0,2.2,0.8,3.6,2.5,4.2c1.1,0.4,3.4,0.6,6.9,0.7
			c0.4,0,1,0,1.8,0h0.4l2.4,0c0.8,0,1.6,0,2.2,0c1.6-0.1,2.8-0.3,3.6-0.6c0.6-0.3,1.1-0.8,1.4-1.4c0.2-0.5,0.3-1,0.3-1.7
			c0-3.3-0.1-7.8-0.1-13.5c-0.1-4.6-0.1-9.9-0.3-15.9c-0.1-2.4-0.1-4.8-0.1-7.3c-0.1-2-0.1-4-0.1-6c0-0.7-0.1-1.5-0.1-2.4
			c0-0.3,0-0.6,0-0.9v-0.5v-0.4c-0.1-1.1-0.1-1.6-0.1-1.6L347,464.7z"/>
		<path class="st0" d="M407.4,520.8h-7.7c0-7.3,0-14.8-0.1-22.5c0-8.7-0.1-15.8-0.3-21.2c-4.5,7.4-7.5,12-9,13.8
			c-0.8,1-1.6,1.6-2.2,2c-0.5,0.3-1.2,0.4-2.1,0.5c-1.9,0.2-3.5-0.2-4.8-1.2c-0.8-0.6-2-1.9-3.4-3.9c-1.2-1.7-3.1-4.7-5.7-8.8
			l-0.7-1.2l-0.7-1.3c-0.6-1-1.2-1.9-1.6-2.6c-0.1,4.4,0.1,10.7,0.5,18.8c0.1,2.9,0.2,6.2,0.4,9.8c0.1,1.3,0.2,2.7,0.2,4.3
			c0,0.6,0.1,1.2,0.1,1.9l0.1,0.9v0.9c0.3,5.7,0.5,8.8,0.5,9.4h-7.7c0-0.8-0.2-3.9-0.5-9.3l-0.1-1.5l-0.1-1.6
			c-0.1-1.4-0.1-2.6-0.1-3.4c-0.1-2.7-0.3-5.1-0.4-7.2c-0.2-5.8-0.4-10.6-0.5-14.7c-0.1-5-0.2-8.9-0.1-11.9c0.1-2.6,0.4-4.2,0.8-5
			c0.5-1.1,1.8-1.7,3.7-1.8c1.1,0,2.1,0.1,2.8,0.3c0.8,0.3,1.6,0.9,2.5,1.8c1.4,1.5,4.2,5.6,8.3,12.3l0.7,1.1l0.7,1.1l1.4,2.3
			c1.1,1.8,2,3.2,2.8,4.2c0.9-1.4,2.1-3.2,3.5-5.5c0.5-0.8,1.1-1.8,1.8-2.9l0.9-1.4c0.3-0.6,0.5-1,0.7-1.3c1.9-3.1,3.3-5.4,4.3-6.9
			c1.1-1.7,2-2.8,2.5-3.3c0.8-0.7,2-1,3.4-1h1.6l1.1,0.6c0.8,0.4,1.4,1.8,1.6,4.2c0.3,3.3,0.5,11.4,0.6,24.4
			c0.1,5.5,0.1,11.6,0.1,18.3v6.1c0,0.3,0,0.7,0,1V520.8z"/>
		<path class="st0" d="M425.8,521.5c-1.9-0.1-3.2-0.8-3.7-2c-0.5-1.2-0.9-4-1-8.5c-0.1-4.4-0.1-10.7,0.1-18.8
			c0.1-3.1,0.2-6.4,0.4-9.9c0.1-2.8,0.2-5.7,0.4-8.7c0-1.2,0.1-2.3,0.1-3.5c0-0.9,0.1-1.8,0.1-2.7c0-0.3,0-0.7,0.1-1v-0.4v-0.3
			l0.1-0.6l7.6,0.1c-0.4,7.6-0.8,15.3-1,23c-0.3,9-0.5,16.2-0.4,21.5c1.2-2.4,2.7-5.3,4.5-8.9c0.6-1.4,1.4-2.9,2.2-4.7l1.1-2.3
			c0.2-0.5,0.6-1.3,1-2.2c5.9-12.2,9.7-19.8,11.5-22.7c1.5-2.5,2.9-3.9,4.3-4.2l1.6-0.4l1.7,0.3c1.1,0.2,1.9,0.7,2.3,1.2
			c0.6,0.9,1.1,2.7,1.3,5.4c0.4,5.6,0.2,19.3-0.8,41c-0.1,3.5-0.2,5.9-0.3,7.3l-7.7-0.1c0-1.5,0.1-3.9,0.3-7.3
			c0.1-2.8,0.3-5.3,0.4-7.7c0.1-3.3,0.3-6.4,0.4-9.3c0.2-7.7,0.3-13.8,0.3-18.4c-1,2-2.3,4.6-3.8,7.8l-2,4.1l-1,2l-1,2
			c-4.3,9-7.4,15.2-9.3,18.8c-2.2,4.3-3.9,6.9-4.8,8.1c-1.1,1.3-2.6,2-4.3,2L425.8,521.5z"/>
	</g>
</g>
</svg>
