<svg xmlns="http://www.w3.org/2000/svg" viewBox="0 0 600 600"><defs><style>.cls-1{fill:none;}</style></defs><g id="Слой_2" data-name="Слой 2"><g id="Слой_1-2" data-name="Слой 1"><path d="M228.5,324.31c-106.11-85.05-19.64-208,66.48-272.14a3.35,3.35,0,0,1,3.92-.07c86.29,60.11,172.31,181.41,83.75,267.32a3.37,3.37,0,0,1-5.26-4.11c48.5-84.56-.68-178.55-77.94-231.74a3.36,3.36,0,0,0-4,.12c-45,34.88-91,80.84-94.09,141.09-3.7,54.49,49,108.43,103.91,98a3.36,3.36,0,0,0,.76-.24c83-35.71,53.85-124.59-7.87-166.27a3.38,3.38,0,0,0-3.93.14c-28.72,22.15-56.12,46.62-66.45,82.57a3.37,3.37,0,0,1-6.59-.82c-2.35-44.61,37.26-85.16,73-110.85a3.28,3.28,0,0,1,3.75-.11c176.33,122.9,25.66,303.06-127.56,190.4-46-33.82-65.35-94.64-28.6-218.35,1.08-3.62,6.79-1.68,6.06,2-25,127.15-7.88,191.53,80.61,223.08"/><path d="M455.22,99.16C513.77,203.76,480,324.31,374.06,375c99.15-16.9,137.45-76.62,161.64-193.31.81-3.93,6.78-3.33,6.61.67C535.17,350.22,444,406.42,315.7,404.26a1.82,1.82,0,0,0-.33,0C180.44,417.66,59.93,363.84,59.89,182.39a3.3,3.3,0,0,1,6.58-.45c45.86,341.87,489,212.33,382.82-79.78C447.94,98.45,453.29,95.71,455.22,99.16Z"/><path d="M79.71,449.73c63.68-18.39,230.42-66.84,444.85-1.18,1.92.58.72,3.29-1.27,3-183.86-25.85-258.22-25.85-442.51.62C79.14,452.42,78.12,450.19,79.71,449.73Z"/><path d="M131,519.38q6.87-2.52,8.73-13.22a59.39,59.39,0,0,0,.83-9.8c0-1.47,0-3.14-.08-5l-.07-2.4-.08-2.33q-.23-4.25-.22-6.87a11.92,11.92,0,0,1,2.46-7.55,14.62,14.62,0,0,1,5.15-3.94A25.36,25.36,0,0,1,159.28,466l1,0,1,0h1l1.05,0c.79,0,1.54.07,2.24.12a23.42,23.42,0,0,1,4.4.67q5,1.39,5.15,5.22.22,6.31,1.19,28,.38,8,.67,14.61.3,6.3.3,6.45l-7.68.11q0-.15-.3-6.49-.3-6.6-.6-14.6-1.05-21.68-1.27-28c0-1-.42-1.67-1.12-1.92a27.14,27.14,0,0,0-5.22-.37l-2.24,0h-1a10,10,0,0,0-1.34.15,12.42,12.42,0,0,0-3.51,1.05,9.07,9.07,0,0,0-5.23,8.71c0,1.33.05,3.59.15,6.8.1,2.4.18,4.22.23,5.48q.08,3.07,0,5.52a51.79,51.79,0,0,1-1,10.51q-2.54,11.12-11.56,14.41Z"/><path d="M221.07,521.67a90.32,90.32,0,0,0-.82-14.38q-6.57-.19-20.82.07-2.25,11.24-2.24,13.78h-7.61a88.51,88.51,0,0,1,1.56-10.25q1.73-9.42,3.81-18a131.65,131.65,0,0,1,5.3-17.57c1.39-3.53,2.76-5.95,4.1-7.28a7.08,7.08,0,0,1,5.23-2,11.21,11.21,0,0,1,1.86.15,7.42,7.42,0,0,1,2.17.75q6.19,3.17,11.12,23.43,4.4,18.36,4,31.42ZM200.25,503.5q13.42-.22,19.4-.08-3.66-23.73-9.77-32.14-2.25,3.69-5.08,13.56Q202.49,492.94,200.25,503.5Z"/><path d="M263,523.24,241.82,496q0,21.29-1.2,25.45l-7.61-.52q1.13-3.9,1.12-26.54T233,467l7.61-.45q.75,3.38,1.12,19.29l1.42-1.35,1.49-1.39c1.2-1.12,2.24-2.11,3.14-3q3.72-3.42,6.34-5.9,7.1-6.6,9.18-8.41l6.64,1.88q-2.16,1.95-10.75,9.95L252,484.35,250.25,486l-.82.79-.82.75c-1.3,1.18-2.29,2.11-3,2.78l24.55,31.58Z"/><path d="M347.19,465.65v2.41a6.9,6.9,0,0,1,.08,1c0,.83,0,1.62.07,2.37q.07,3.08.08,6c.09,2.53.17,5,.22,7.33q.45,20.61.45,29.43,0,3.95-4.11,5.86-3.59,1.72-10.45,1.72c-.89,0-2.06,0-3.5-.07h-.45l-1.57,0c-1,0-1.94,0-2.83-.11-1.15-.08-2.22-.19-3.21-.34a22.25,22.25,0,0,1-6.5-1.91l-.15.15-.22.18a1.18,1.18,0,0,1-.45.3q-3.79,1.85-11.27,1.84l-1.86,0-1.72,0h-.37l-1.79,0h-1.12l-1.2,0q-1.41,0-2.61-.15a24.64,24.64,0,0,1-5.37-1q-6-2-6-7.47c0-1.91,0-5.52.07-10.85q.15-6.31.23-15.81.07-3.6.15-7.73,0-2.94.07-6.57.08-6.32.08-6.39l7.68,0q0,.07-.07,6.38-.07,3.65-.08,6.57c-.05,2.76-.1,5.33-.15,7.74q-.15,9.47-.22,15.77c-.05,5.33-.07,8.94-.07,10.85,0,2.12.74,3.5,2.23,4.12q1.5.6,6.57.68l2,0h.37l1.19,0h1.35c.94,0,1.79,0,2.53,0a10.89,10.89,0,0,0,4.11-.75,2.94,2.94,0,0,0,1.72-2.93q0-9-.45-29.4-.15-6.87-.3-13.32c0-1.66-.08-3-.08-4.13s-.07-1.57-.07-1.62l7.69,0v2.29a6.54,6.54,0,0,1,.07.91v2.25c.05,2,.1,3.89.15,5.74q.07,3.6.15,7,.22,8.71.3,15.47.15,8.49.22,13.56c0,2.17.82,3.59,2.47,4.24a26.33,26.33,0,0,0,6.94.71c.44,0,1,0,1.79,0h.44l2.39,0c.85,0,1.59,0,2.24,0a10.17,10.17,0,0,0,3.58-.64,2.83,2.83,0,0,0,1.42-1.43,4.22,4.22,0,0,0,.3-1.65q0-4.87-.15-13.52-.08-6.87-.3-15.88-.07-3.52-.15-7.32-.07-2.93-.15-6c0-.75-.07-1.54-.07-2.37v-1.76c-.05-1.06-.08-1.59-.08-1.62Z"/><path d="M407.64,521.74H400q.07-10.92-.07-22.49-.08-13.1-.3-21.17-6.79,11.07-9,13.78a8.94,8.94,0,0,1-2.24,2,6.34,6.34,0,0,1-2.09.52,6.25,6.25,0,0,1-4.77-1.16,16.64,16.64,0,0,1-3.36-3.94q-1.8-2.59-5.67-8.79l-.75-1.24-.75-1.27c-.64-1-1.19-1.85-1.64-2.63q-.07,6.65.52,18.77.15,4.39.45,9.76c.1,1.3.17,2.74.23,4.32,0,.58.09,1.21.14,1.92l.08.9v.86q.53,8.57.52,9.42h-7.69q0-1.12-.52-9.31l-.07-1.54-.08-1.61c-.05-1.43-.1-2.56-.15-3.38-.15-2.73-.29-5.13-.44-7.21q-.37-8.64-.53-14.68-.23-7.47-.07-11.86a14.66,14.66,0,0,1,.82-5c.55-1.12,1.79-1.72,3.73-1.8a8.85,8.85,0,0,1,2.76.3,6.86,6.86,0,0,1,2.47,1.8q2.08,2.22,8.28,12.28l.67,1.05.75,1.13,1.42,2.25q1.64,2.67,2.76,4.2c.89-1.35,2.06-3.17,3.5-5.48.5-.8,1.1-1.76,1.79-2.89l.9-1.39c.3-.55.55-1,.75-1.27,1.89-3.08,3.3-5.37,4.25-6.87a18.71,18.71,0,0,1,2.54-3.27,5.31,5.31,0,0,1,3.43-1h1.64l1.12.6c.85.42,1.39,1.84,1.64,4.24q.45,5,.6,24.36.15,8.31.15,18.33v8.44Z"/><path d="M426.07,522.46c-1.94-.13-3.18-.78-3.73-2s-.89-4-1-8.52-.1-10.66.15-18.77q.15-4.62.37-9.87.15-4.21.45-8.68c.05-1.17.1-2.34.15-3.49l.15-2.7a7.05,7.05,0,0,1,.07-1v-.76l.08-.63,7.61.11q-.68,11.37-1.05,23-.52,13.51-.37,21.48,1.86-3.57,4.48-8.86,1-2.07,2.24-4.66l1.12-2.25c.24-.53.59-1.26,1-2.21q8.81-18.29,11.49-22.72,2.25-3.72,4.33-4.24l1.57-.41,1.71.3a3.76,3.76,0,0,1,2.32,1.2c.64.9,1.07,2.7,1.27,5.4q.66,8.38-.82,41-.23,5.18-.3,7.32l-7.69-.08q.07-2.21.3-7.32c.15-2.75.27-5.32.37-7.69q.23-5,.38-9.35.36-11.56.29-18.44l-3.8,7.78-2,4.09-1,2-1,2q-6.5,13.44-9.33,18.85a49.37,49.37,0,0,1-4.85,8.07,5.43,5.43,0,0,1-4.25,2Z"/><rect class="cls-1" width="600" height="600"/></g></g></svg>