<?xml version="1.0" encoding="utf-8"?>
<!-- Generator: Adobe Illustrator 26.3.1, SVG Export Plug-In . SVG Version: 6.00 Build 0)  -->
<svg version="1.1" id="Слой_1" xmlns="http://www.w3.org/2000/svg" xmlns:xlink="http://www.w3.org/1999/xlink" x="0px" y="0px"
	 viewBox="0 0 101 100" style="enable-background:new 0 0 101 100;" xml:space="preserve">
<style type="text/css">
	.st0{clip-path:url(#SVGID_00000070114100107513347280000017438501750833356969_);}
	.st1{fill-rule:evenodd;clip-rule:evenodd;fill:none;stroke:#000000;stroke-width:3;stroke-miterlimit:10;}
</style>
<g>
	<defs>
		<rect id="SVGID_1_" x="0.5" y="0" width="100" height="100"/>
	</defs>
	<clipPath id="SVGID_00000008115152341952505760000005446179265103121330_">
		<use xlink:href="#SVGID_1_"  style="overflow:visible;"/>
	</clipPath>
	<g style="clip-path:url(#SVGID_00000008115152341952505760000005446179265103121330_);">
		<path class="st1" d="M7.5,7c-7,7-7,18.3-7,41v4c0,22.6,0,33.9,7,41c7,7,18.3,7,41,7h4c22.6,0,33.9,0,41-7c7-7,7-18.3,7-41v-4
			c0-22.6,0-33.9-7-41c-7-7-18.3-7-41-7h-4C25.9,0,14.6,0,7.5,7z M17.4,30.4C17.9,56.4,30.9,72,53.7,72H55V57.2
			c8.4,0.8,14.7,7,17.2,14.9h11.8C80.8,60.2,72.3,53.7,67,51.2c5.3-3.1,12.8-10.6,14.6-20.7H70.8c-2.3,8.2-9.2,15.7-15.8,16.5V30.4
			H44.2v28.8c-6.7-1.7-15.1-9.7-15.5-28.8H17.4z"/>
	</g>
</g>
</svg>
