<svg xmlns="http://www.w3.org/2000/svg" viewBox="0 0 124.48 88.04"><defs><style>.cls-1{fill:none;stroke:#000;stroke-miterlimit:10;stroke-width:3px;}</style></defs><g id="Слой_2" data-name="Слой 2"><g id="Layer_1" data-name="Layer 1"><path class="cls-1" d="M120.45,14.78A15.23,15.23,0,0,0,109.71,4C100.23,1.5,62.24,1.5,62.24,1.5s-38,0-47.46,2.54A15.21,15.21,0,0,0,4,14.78C1.5,24.25,1.5,44,1.5,44S1.5,63.79,4,73.26A15.21,15.21,0,0,0,14.78,84c9.47,2.54,47.46,2.54,47.46,2.54s38,0,47.47-2.54a15.23,15.23,0,0,0,10.74-10.74C123,63.79,123,44,123,44S123,24.25,120.45,14.78Z"/><polygon class="cls-1" points="50.09 62.24 50.09 25.8 81.66 44.02 50.09 62.24"/></g></g></svg>